<?xml version="1.0"?>
<!DOCTYPE svg PUBLIC "-//W3C//DTD SVG 1.0//EN" "http://www.w3.org/TR/2001/REC-SVG-20010904/DTD/svg10.dtd">

<svg xmlns="http://www.w3.org/2000/svg" width="200" height="200">
  <rect x="0.0" y="0.0" width="200.0" height="200.0" stroke="#000000" stroke-width="0.0" stroke-linecap="round" stroke-linejoin="round" fill="#ffffff" />
  <circle cx="100.0" cy="100.0" r="75.0" stroke="#e69500" stroke-width="2.0" stroke-linecap="round" stroke-linejoin="round" fill="#ffa500" />
  <ellipse cx="100.0" cy="185.0" rx="35.0" ry="5.0" stroke="#000000" stroke-opacity="0.0" stroke-width="2.0" stroke-linecap="round" stroke-linejoin="round" fill="#e6e6e6" />
  <circle cx="70.0" cy="85.0" r="15.0" stroke="#000000" stroke-opacity="0.0" stroke-width="2.0" stroke-linecap="round" stroke-linejoin="round" fill="#000000" />
  <circle cx="130.0" cy="85.0" r="15.0" stroke="#000000" stroke-opacity="0.0" stroke-width="2.0" stroke-linecap="round" stroke-linejoin="round" fill="#000000" />
  <path stroke="#000000" stroke-width="3.0" stroke-linecap="round" stroke-linejoin="round" fill="#000000" fill-opacity="0.0" fill-rule="evenodd" d="
    M66.0060919136606 62.34942168071922
    C76.99827364317206 60.41120346495571 87.79538562624911 66.64491897485578 91.6129302780759 77.13353670350962" />
  <path stroke="#000000" stroke-width="3.0" stroke-linecap="round" stroke-linejoin="round" fill="#000000" fill-opacity="0.0" fill-rule="evenodd" d="
    M108.3870697219241 77.13353670350962
    C112.20461437375089 66.64491897485578 123.00172635682793 60.41120346495571 133.9939080863394 62.34942168071922" />
  <path stroke="#000000" stroke-width="5.0" stroke-linecap="round" stroke-linejoin="round" fill="#000000" fill-opacity="0.0" fill-rule="evenodd" d="
    M138.3022221559489 132.13938048432698
    C130.74616892575966 141.1443340672381 120.25895406114188 147.19913039237463 108.68240888334653 149.24038765061042" />
  <path stroke="#ffc04d" stroke-width="5.0" stroke-linecap="round" stroke-linejoin="round" fill="#000000" fill-opacity="0.0" fill-rule="evenodd" d="
    M47.90897786790949 56.29044254131533
    C58.18521026096687 44.043705668556186 72.44782247684705 35.80918266637054 88.19192391864874 33.03307279516986" />
  <path stroke="#000000" stroke-opacity="0.0" stroke-width="5.0" stroke-linecap="round" stroke-linejoin="round" fill="#000000" fill-rule="nonzero" d="
    M126.67757117940215 26.70397557869913
    C137.0571292591739 30.481825764573315 144.7057854249605 35.64795202919912 143.76132287849197 38.24284154914206
    C142.81686033202342 40.837731069084995 133.6369278259172 39.87875197243241 123.25736974614546 36.10090178655821
    C112.8778116663737 32.32305160068404 105.2291555005871 27.156925336058244 106.17361804705564 24.562035816115305
    C107.11808059352418 21.96714629617236 116.2980130996304 22.926125392824957 126.67757117940215 26.70397557869913
    Z
    M130.09777261265884 17.307049370840048
    C137.88244117248766 20.140437010245684 143.42752375428768 24.540925104711683 142.48306120781913 27.13581462465463
    C141.5385986613506 29.730704144597567 134.46223973923097 29.537363218104772 126.67757117940215 26.70397557869913
    C118.89290261957333 23.8705879392935 113.34782003777335 19.4700998448275 114.29228258424189 16.875210324884563
    C115.23674513071043 14.280320804941624 122.31310405283003 14.473661731434419 130.09777261265884 17.307049370840048
    Z
    M114.29228258424189 16.875210324884563
    L142.48306120781913 27.13581462465463
    L139.06285977456244 36.53274083251371
    L110.8720811509852 26.272136532743644
    Z" />
</svg>