<?xml version="1.0"?>
<!DOCTYPE svg PUBLIC "-//W3C//DTD SVG 1.0//EN" "http://www.w3.org/TR/2001/REC-SVG-20010904/DTD/svg10.dtd">

<svg xmlns="http://www.w3.org/2000/svg" width="400" height="400">
  <rect x="0.0" y="0.0" width="400.0" height="400.0" stroke="#000000" stroke-width="0.0" stroke-linecap="square" stroke-linejoin="bevel" fill="#f8f8ff" />
  <g id="tag_4587454536" class="profile">
    <polygon points="30.0,57.5 67.77777777777777,71.25 105.55555555555556,48.333333333333336 143.33333333333331,66.66666666666667 181.11111111111111,39.166666666666664 218.88888888888889,71.25 256.66666666666663,43.75 294.44444444444446,52.916666666666664 332.22222222222223,75.83333333333333 370.0,34.583333333333336 370.0,80.41666666666667 30.0,80.41666666666667" stroke="#000000" stroke-opacity="0.0" stroke-width="1.0" stroke-linecap="square" stroke-linejoin="bevel" fill="#b3b3ff" fill-rule="evenodd" />
    <polyline points="30.0,57.5 67.77777777777777,71.25 105.55555555555556,48.333333333333336 143.33333333333331,66.66666666666667 181.11111111111111,39.166666666666664 218.88888888888889,71.25 256.66666666666663,43.75 294.44444444444446,52.916666666666664 332.22222222222223,75.83333333333333 370.0,34.583333333333336" stroke="#0000ff" stroke-width="1.0" stroke-linecap="square" stroke-linejoin="bevel" fill="#000000" fill-opacity="0.0" fill-rule="evenodd" />
    <circle cx="30.0" cy="57.5" r="4.0" stroke="#ffffff" stroke-width="1.0" stroke-linecap="square" stroke-linejoin="bevel" fill="#0000ff" />
    <circle cx="67.77777777777777" cy="71.25" r="4.0" stroke="#ffffff" stroke-width="1.0" stroke-linecap="square" stroke-linejoin="bevel" fill="#0000ff" />
    <circle cx="105.55555555555556" cy="48.333333333333336" r="4.0" stroke="#ffffff" stroke-width="1.0" stroke-linecap="square" stroke-linejoin="bevel" fill="#0000ff" />
    <circle cx="143.33333333333331" cy="66.66666666666667" r="4.0" stroke="#ffffff" stroke-width="1.0" stroke-linecap="square" stroke-linejoin="bevel" fill="#0000ff" />
    <circle cx="181.11111111111111" cy="39.166666666666664" r="4.0" stroke="#ffffff" stroke-width="1.0" stroke-linecap="square" stroke-linejoin="bevel" fill="#0000ff" />
    <circle cx="218.88888888888889" cy="71.25" r="4.0" stroke="#ffffff" stroke-width="1.0" stroke-linecap="square" stroke-linejoin="bevel" fill="#0000ff" />
    <circle cx="256.66666666666663" cy="43.75" r="4.0" stroke="#ffffff" stroke-width="1.0" stroke-linecap="square" stroke-linejoin="bevel" fill="#0000ff" />
    <circle cx="294.44444444444446" cy="52.916666666666664" r="4.0" stroke="#ffffff" stroke-width="1.0" stroke-linecap="square" stroke-linejoin="bevel" fill="#0000ff" />
    <circle cx="332.22222222222223" cy="75.83333333333333" r="4.0" stroke="#ffffff" stroke-width="1.0" stroke-linecap="square" stroke-linejoin="bevel" fill="#0000ff" />
    <circle cx="370.0" cy="34.583333333333336" r="4.0" stroke="#ffffff" stroke-width="1.0" stroke-linecap="square" stroke-linejoin="bevel" fill="#0000ff" />
  </g>
  <text x="30.0" y="105.0" font-family="Arial" font-size="16.200000000000003" text-anchor="left" fill="#000000" >pero.NONE</text>
  <g id="tag_4587454536" class="profile">
    <polygon points="30.0,142.5 30.0,156.25 67.77777777777777,156.25 67.77777777777777,133.33333333333334 105.55555555555556,133.33333333333334 105.55555555555556,151.66666666666666 143.33333333333331,151.66666666666666 143.33333333333331,124.16666666666666 181.11111111111111,124.16666666666666 181.11111111111111,156.25 218.88888888888889,156.25 218.88888888888889,128.75 256.66666666666663,128.75 256.66666666666663,137.91666666666666 294.44444444444446,137.91666666666666 294.44444444444446,160.83333333333334 332.22222222222223,160.83333333333334 332.22222222222223,119.58333333333334 370.0,119.58333333333334 370.0,165.41666666666666 30.0,165.41666666666666" stroke="#000000" stroke-opacity="0.0" stroke-width="1.0" stroke-linecap="square" stroke-linejoin="bevel" fill="#b3b3ff" fill-rule="evenodd" />
    <polyline points="30.0,142.5 30.0,156.25 67.77777777777777,156.25 67.77777777777777,133.33333333333334 105.55555555555556,133.33333333333334 105.55555555555556,151.66666666666666 143.33333333333331,151.66666666666666 143.33333333333331,124.16666666666666 181.11111111111111,124.16666666666666 181.11111111111111,156.25 218.88888888888889,156.25 218.88888888888889,128.75 256.66666666666663,128.75 256.66666666666663,137.91666666666666 294.44444444444446,137.91666666666666 294.44444444444446,160.83333333333334 332.22222222222223,160.83333333333334 332.22222222222223,119.58333333333334 370.0,119.58333333333334" stroke="#0000ff" stroke-width="1.0" stroke-linecap="square" stroke-linejoin="bevel" fill="#000000" fill-opacity="0.0" fill-rule="evenodd" />
    <circle cx="30.0" cy="142.5" r="4.0" stroke="#ffffff" stroke-width="1.0" stroke-linecap="square" stroke-linejoin="bevel" fill="#0000ff" />
    <circle cx="67.77777777777777" cy="156.25" r="4.0" stroke="#ffffff" stroke-width="1.0" stroke-linecap="square" stroke-linejoin="bevel" fill="#0000ff" />
    <circle cx="105.55555555555556" cy="133.33333333333334" r="4.0" stroke="#ffffff" stroke-width="1.0" stroke-linecap="square" stroke-linejoin="bevel" fill="#0000ff" />
    <circle cx="143.33333333333331" cy="151.66666666666666" r="4.0" stroke="#ffffff" stroke-width="1.0" stroke-linecap="square" stroke-linejoin="bevel" fill="#0000ff" />
    <circle cx="181.11111111111111" cy="124.16666666666666" r="4.0" stroke="#ffffff" stroke-width="1.0" stroke-linecap="square" stroke-linejoin="bevel" fill="#0000ff" />
    <circle cx="218.88888888888889" cy="156.25" r="4.0" stroke="#ffffff" stroke-width="1.0" stroke-linecap="square" stroke-linejoin="bevel" fill="#0000ff" />
    <circle cx="256.66666666666663" cy="128.75" r="4.0" stroke="#ffffff" stroke-width="1.0" stroke-linecap="square" stroke-linejoin="bevel" fill="#0000ff" />
    <circle cx="294.44444444444446" cy="137.91666666666666" r="4.0" stroke="#ffffff" stroke-width="1.0" stroke-linecap="square" stroke-linejoin="bevel" fill="#0000ff" />
    <circle cx="332.22222222222223" cy="160.83333333333334" r="4.0" stroke="#ffffff" stroke-width="1.0" stroke-linecap="square" stroke-linejoin="bevel" fill="#0000ff" />
    <circle cx="370.0" cy="119.58333333333334" r="4.0" stroke="#ffffff" stroke-width="1.0" stroke-linecap="square" stroke-linejoin="bevel" fill="#0000ff" />
  </g>
  <text x="30.0" y="190.0" font-family="Arial" font-size="16.200000000000003" text-anchor="left" fill="#000000" >pero.BEFORE</text>
  <g id="tag_4587454536" class="profile">
    <polygon points="30.0,227.5 67.77777777777777,227.5 67.77777777777777,241.25 105.55555555555556,241.25 105.55555555555556,218.33333333333334 143.33333333333331,218.33333333333334 143.33333333333331,236.66666666666666 181.11111111111111,236.66666666666666 181.11111111111111,209.16666666666666 218.88888888888889,209.16666666666666 218.88888888888889,241.25 256.66666666666663,241.25 256.66666666666663,213.75 294.44444444444446,213.75 294.44444444444446,222.91666666666666 332.22222222222223,222.91666666666666 332.22222222222223,245.83333333333334 370.0,245.83333333333334 370.0,204.58333333333334 370.0,250.41666666666666 30.0,250.41666666666666" stroke="#000000" stroke-opacity="0.0" stroke-width="1.0" stroke-linecap="square" stroke-linejoin="bevel" fill="#b3b3ff" fill-rule="evenodd" />
    <polyline points="30.0,227.5 67.77777777777777,227.5 67.77777777777777,241.25 105.55555555555556,241.25 105.55555555555556,218.33333333333334 143.33333333333331,218.33333333333334 143.33333333333331,236.66666666666666 181.11111111111111,236.66666666666666 181.11111111111111,209.16666666666666 218.88888888888889,209.16666666666666 218.88888888888889,241.25 256.66666666666663,241.25 256.66666666666663,213.75 294.44444444444446,213.75 294.44444444444446,222.91666666666666 332.22222222222223,222.91666666666666 332.22222222222223,245.83333333333334 370.0,245.83333333333334 370.0,204.58333333333334" stroke="#0000ff" stroke-width="1.0" stroke-linecap="square" stroke-linejoin="bevel" fill="#000000" fill-opacity="0.0" fill-rule="evenodd" />
    <circle cx="30.0" cy="227.5" r="4.0" stroke="#ffffff" stroke-width="1.0" stroke-linecap="square" stroke-linejoin="bevel" fill="#0000ff" />
    <circle cx="67.77777777777777" cy="241.25" r="4.0" stroke="#ffffff" stroke-width="1.0" stroke-linecap="square" stroke-linejoin="bevel" fill="#0000ff" />
    <circle cx="105.55555555555556" cy="218.33333333333334" r="4.0" stroke="#ffffff" stroke-width="1.0" stroke-linecap="square" stroke-linejoin="bevel" fill="#0000ff" />
    <circle cx="143.33333333333331" cy="236.66666666666666" r="4.0" stroke="#ffffff" stroke-width="1.0" stroke-linecap="square" stroke-linejoin="bevel" fill="#0000ff" />
    <circle cx="181.11111111111111" cy="209.16666666666666" r="4.0" stroke="#ffffff" stroke-width="1.0" stroke-linecap="square" stroke-linejoin="bevel" fill="#0000ff" />
    <circle cx="218.88888888888889" cy="241.25" r="4.0" stroke="#ffffff" stroke-width="1.0" stroke-linecap="square" stroke-linejoin="bevel" fill="#0000ff" />
    <circle cx="256.66666666666663" cy="213.75" r="4.0" stroke="#ffffff" stroke-width="1.0" stroke-linecap="square" stroke-linejoin="bevel" fill="#0000ff" />
    <circle cx="294.44444444444446" cy="222.91666666666666" r="4.0" stroke="#ffffff" stroke-width="1.0" stroke-linecap="square" stroke-linejoin="bevel" fill="#0000ff" />
    <circle cx="332.22222222222223" cy="245.83333333333334" r="4.0" stroke="#ffffff" stroke-width="1.0" stroke-linecap="square" stroke-linejoin="bevel" fill="#0000ff" />
    <circle cx="370.0" cy="204.58333333333334" r="4.0" stroke="#ffffff" stroke-width="1.0" stroke-linecap="square" stroke-linejoin="bevel" fill="#0000ff" />
  </g>
  <text x="30.0" y="275.0" font-family="Arial" font-size="16.200000000000003" text-anchor="left" fill="#000000" >pero.AFTER</text>
  <g id="tag_4587454536" class="profile">
    <polygon points="30.0,312.5 48.888888888888886,312.5 48.888888888888886,326.25 67.77777777777777,326.25 86.66666666666666,326.25 86.66666666666666,303.3333333333333 105.55555555555556,303.3333333333333 124.44444444444443,303.3333333333333 124.44444444444443,321.6666666666667 143.33333333333331,321.6666666666667 162.22222222222223,321.6666666666667 162.22222222222223,294.1666666666667 181.11111111111111,294.1666666666667 200.0,294.1666666666667 200.0,326.25 218.88888888888889,326.25 237.77777777777777,326.25 237.77777777777777,298.75 256.66666666666663,298.75 275.55555555555554,298.75 275.55555555555554,307.9166666666667 294.44444444444446,307.9166666666667 313.33333333333337,307.9166666666667 313.33333333333337,330.8333333333333 332.22222222222223,330.8333333333333 351.1111111111111,330.8333333333333 351.1111111111111,289.5833333333333 370.0,289.5833333333333 370.0,335.4166666666667 30.0,335.4166666666667" stroke="#000000" stroke-opacity="0.0" stroke-width="1.0" stroke-linecap="square" stroke-linejoin="bevel" fill="#b3b3ff" fill-rule="evenodd" />
    <polyline points="30.0,312.5 48.888888888888886,312.5 48.888888888888886,326.25 67.77777777777777,326.25 86.66666666666666,326.25 86.66666666666666,303.3333333333333 105.55555555555556,303.3333333333333 124.44444444444443,303.3333333333333 124.44444444444443,321.6666666666667 143.33333333333331,321.6666666666667 162.22222222222223,321.6666666666667 162.22222222222223,294.1666666666667 181.11111111111111,294.1666666666667 200.0,294.1666666666667 200.0,326.25 218.88888888888889,326.25 237.77777777777777,326.25 237.77777777777777,298.75 256.66666666666663,298.75 275.55555555555554,298.75 275.55555555555554,307.9166666666667 294.44444444444446,307.9166666666667 313.33333333333337,307.9166666666667 313.33333333333337,330.8333333333333 332.22222222222223,330.8333333333333 351.1111111111111,330.8333333333333 351.1111111111111,289.5833333333333 370.0,289.5833333333333" stroke="#0000ff" stroke-width="1.0" stroke-linecap="square" stroke-linejoin="bevel" fill="#000000" fill-opacity="0.0" fill-rule="evenodd" />
    <circle cx="30.0" cy="312.5" r="4.0" stroke="#ffffff" stroke-width="1.0" stroke-linecap="square" stroke-linejoin="bevel" fill="#0000ff" />
    <circle cx="67.77777777777777" cy="326.25" r="4.0" stroke="#ffffff" stroke-width="1.0" stroke-linecap="square" stroke-linejoin="bevel" fill="#0000ff" />
    <circle cx="105.55555555555556" cy="303.3333333333333" r="4.0" stroke="#ffffff" stroke-width="1.0" stroke-linecap="square" stroke-linejoin="bevel" fill="#0000ff" />
    <circle cx="143.33333333333331" cy="321.6666666666667" r="4.0" stroke="#ffffff" stroke-width="1.0" stroke-linecap="square" stroke-linejoin="bevel" fill="#0000ff" />
    <circle cx="181.11111111111111" cy="294.1666666666667" r="4.0" stroke="#ffffff" stroke-width="1.0" stroke-linecap="square" stroke-linejoin="bevel" fill="#0000ff" />
    <circle cx="218.88888888888889" cy="326.25" r="4.0" stroke="#ffffff" stroke-width="1.0" stroke-linecap="square" stroke-linejoin="bevel" fill="#0000ff" />
    <circle cx="256.66666666666663" cy="298.75" r="4.0" stroke="#ffffff" stroke-width="1.0" stroke-linecap="square" stroke-linejoin="bevel" fill="#0000ff" />
    <circle cx="294.44444444444446" cy="307.9166666666667" r="4.0" stroke="#ffffff" stroke-width="1.0" stroke-linecap="square" stroke-linejoin="bevel" fill="#0000ff" />
    <circle cx="332.22222222222223" cy="330.8333333333333" r="4.0" stroke="#ffffff" stroke-width="1.0" stroke-linecap="square" stroke-linejoin="bevel" fill="#0000ff" />
    <circle cx="370.0" cy="289.5833333333333" r="4.0" stroke="#ffffff" stroke-width="1.0" stroke-linecap="square" stroke-linejoin="bevel" fill="#0000ff" />
  </g>
  <text x="30.0" y="360.0" font-family="Arial" font-size="16.200000000000003" text-anchor="left" fill="#000000" >pero.MIDDLE</text>
</svg>