<?xml version="1.0"?>
<!DOCTYPE svg PUBLIC "-//W3C//DTD SVG 1.0//EN" "http://www.w3.org/TR/2001/REC-SVG-20010904/DTD/svg10.dtd">

<svg xmlns="http://www.w3.org/2000/svg" width="400" height="400">
  <rect x="0.0" y="0.0" width="400.0" height="400.0" stroke="#000000" stroke-width="0.0" stroke-linecap="square" stroke-linejoin="bevel" fill="#f8f8ff" />
  <g id="tag_4714356128" class="profile">
    <polygon points="30.0,53.75 67.77777777777777,65.625 105.55555555555556,45.833333333333336 143.33333333333331,61.66666666666667 181.11111111111111,37.916666666666664 218.88888888888889,65.625 256.66666666666663,41.875 294.44444444444446,49.791666666666664 332.22222222222223,69.58333333333333 370.0,33.958333333333336 370.0,73.54166666666667 30.0,73.54166666666667" stroke="#000000" stroke-opacity="0.0" stroke-width="1.0" stroke-linecap="square" stroke-linejoin="bevel" fill="#b3b3ff" fill-rule="evenodd" />
    <polyline points="30.0,53.75 67.77777777777777,65.625 105.55555555555556,45.833333333333336 143.33333333333331,61.66666666666667 181.11111111111111,37.916666666666664 218.88888888888889,65.625 256.66666666666663,41.875 294.44444444444446,49.791666666666664 332.22222222222223,69.58333333333333 370.0,33.958333333333336" stroke="#0000ff" stroke-width="1.0" stroke-linecap="square" stroke-linejoin="bevel" fill="#000000" fill-opacity="0.0" fill-rule="evenodd" />
    <circle cx="30.0" cy="53.75" r="4.0" stroke="#ffffff" stroke-width="1.0" stroke-linecap="square" stroke-linejoin="bevel" fill="#0000ff" />
    <circle cx="67.77777777777777" cy="65.625" r="4.0" stroke="#ffffff" stroke-width="1.0" stroke-linecap="square" stroke-linejoin="bevel" fill="#0000ff" />
    <circle cx="105.55555555555556" cy="45.833333333333336" r="4.0" stroke="#ffffff" stroke-width="1.0" stroke-linecap="square" stroke-linejoin="bevel" fill="#0000ff" />
    <circle cx="143.33333333333331" cy="61.66666666666667" r="4.0" stroke="#ffffff" stroke-width="1.0" stroke-linecap="square" stroke-linejoin="bevel" fill="#0000ff" />
    <circle cx="181.11111111111111" cy="37.916666666666664" r="4.0" stroke="#ffffff" stroke-width="1.0" stroke-linecap="square" stroke-linejoin="bevel" fill="#0000ff" />
    <circle cx="218.88888888888889" cy="65.625" r="4.0" stroke="#ffffff" stroke-width="1.0" stroke-linecap="square" stroke-linejoin="bevel" fill="#0000ff" />
    <circle cx="256.66666666666663" cy="41.875" r="4.0" stroke="#ffffff" stroke-width="1.0" stroke-linecap="square" stroke-linejoin="bevel" fill="#0000ff" />
    <circle cx="294.44444444444446" cy="49.791666666666664" r="4.0" stroke="#ffffff" stroke-width="1.0" stroke-linecap="square" stroke-linejoin="bevel" fill="#0000ff" />
    <circle cx="332.22222222222223" cy="69.58333333333333" r="4.0" stroke="#ffffff" stroke-width="1.0" stroke-linecap="square" stroke-linejoin="bevel" fill="#0000ff" />
    <circle cx="370.0" cy="33.958333333333336" r="4.0" stroke="#ffffff" stroke-width="1.0" stroke-linecap="square" stroke-linejoin="bevel" fill="#0000ff" />
  </g>
  <text x="30.0" y="103.0" font-family="Arial" font-size="14.0" fill="#000000" >pero.NONE</text>
  <g id="tag_4714356128" class="profile">
    <polygon points="30.0,141.25 30.0,153.125 67.77777777777777,153.125 67.77777777777777,133.33333333333334 105.55555555555556,133.33333333333334 105.55555555555556,149.16666666666666 143.33333333333331,149.16666666666666 143.33333333333331,125.41666666666666 181.11111111111111,125.41666666666666 181.11111111111111,153.125 218.88888888888889,153.125 218.88888888888889,129.375 256.66666666666663,129.375 256.66666666666663,137.29166666666666 294.44444444444446,137.29166666666666 294.44444444444446,157.08333333333334 332.22222222222223,157.08333333333334 332.22222222222223,121.45833333333334 370.0,121.45833333333334 370.0,161.04166666666666 30.0,161.04166666666666" stroke="#000000" stroke-opacity="0.0" stroke-width="1.0" stroke-linecap="square" stroke-linejoin="bevel" fill="#b3b3ff" fill-rule="evenodd" />
    <polyline points="30.0,141.25 30.0,153.125 67.77777777777777,153.125 67.77777777777777,133.33333333333334 105.55555555555556,133.33333333333334 105.55555555555556,149.16666666666666 143.33333333333331,149.16666666666666 143.33333333333331,125.41666666666666 181.11111111111111,125.41666666666666 181.11111111111111,153.125 218.88888888888889,153.125 218.88888888888889,129.375 256.66666666666663,129.375 256.66666666666663,137.29166666666666 294.44444444444446,137.29166666666666 294.44444444444446,157.08333333333334 332.22222222222223,157.08333333333334 332.22222222222223,121.45833333333334 370.0,121.45833333333334" stroke="#0000ff" stroke-width="1.0" stroke-linecap="square" stroke-linejoin="bevel" fill="#000000" fill-opacity="0.0" fill-rule="evenodd" />
    <circle cx="30.0" cy="141.25" r="4.0" stroke="#ffffff" stroke-width="1.0" stroke-linecap="square" stroke-linejoin="bevel" fill="#0000ff" />
    <circle cx="67.77777777777777" cy="153.125" r="4.0" stroke="#ffffff" stroke-width="1.0" stroke-linecap="square" stroke-linejoin="bevel" fill="#0000ff" />
    <circle cx="105.55555555555556" cy="133.33333333333334" r="4.0" stroke="#ffffff" stroke-width="1.0" stroke-linecap="square" stroke-linejoin="bevel" fill="#0000ff" />
    <circle cx="143.33333333333331" cy="149.16666666666666" r="4.0" stroke="#ffffff" stroke-width="1.0" stroke-linecap="square" stroke-linejoin="bevel" fill="#0000ff" />
    <circle cx="181.11111111111111" cy="125.41666666666666" r="4.0" stroke="#ffffff" stroke-width="1.0" stroke-linecap="square" stroke-linejoin="bevel" fill="#0000ff" />
    <circle cx="218.88888888888889" cy="153.125" r="4.0" stroke="#ffffff" stroke-width="1.0" stroke-linecap="square" stroke-linejoin="bevel" fill="#0000ff" />
    <circle cx="256.66666666666663" cy="129.375" r="4.0" stroke="#ffffff" stroke-width="1.0" stroke-linecap="square" stroke-linejoin="bevel" fill="#0000ff" />
    <circle cx="294.44444444444446" cy="137.29166666666666" r="4.0" stroke="#ffffff" stroke-width="1.0" stroke-linecap="square" stroke-linejoin="bevel" fill="#0000ff" />
    <circle cx="332.22222222222223" cy="157.08333333333334" r="4.0" stroke="#ffffff" stroke-width="1.0" stroke-linecap="square" stroke-linejoin="bevel" fill="#0000ff" />
    <circle cx="370.0" cy="121.45833333333334" r="4.0" stroke="#ffffff" stroke-width="1.0" stroke-linecap="square" stroke-linejoin="bevel" fill="#0000ff" />
  </g>
  <text x="30.0" y="190.5" font-family="Arial" font-size="14.0" fill="#000000" >pero.BEFORE</text>
  <g id="tag_4714356128" class="profile">
    <polygon points="30.0,228.75 67.77777777777777,228.75 67.77777777777777,240.625 105.55555555555556,240.625 105.55555555555556,220.83333333333334 143.33333333333331,220.83333333333334 143.33333333333331,236.66666666666666 181.11111111111111,236.66666666666666 181.11111111111111,212.91666666666666 218.88888888888889,212.91666666666666 218.88888888888889,240.625 256.66666666666663,240.625 256.66666666666663,216.875 294.44444444444446,216.875 294.44444444444446,224.79166666666666 332.22222222222223,224.79166666666666 332.22222222222223,244.58333333333334 370.0,244.58333333333334 370.0,208.95833333333334 370.0,248.54166666666666 30.0,248.54166666666666" stroke="#000000" stroke-opacity="0.0" stroke-width="1.0" stroke-linecap="square" stroke-linejoin="bevel" fill="#b3b3ff" fill-rule="evenodd" />
    <polyline points="30.0,228.75 67.77777777777777,228.75 67.77777777777777,240.625 105.55555555555556,240.625 105.55555555555556,220.83333333333334 143.33333333333331,220.83333333333334 143.33333333333331,236.66666666666666 181.11111111111111,236.66666666666666 181.11111111111111,212.91666666666666 218.88888888888889,212.91666666666666 218.88888888888889,240.625 256.66666666666663,240.625 256.66666666666663,216.875 294.44444444444446,216.875 294.44444444444446,224.79166666666666 332.22222222222223,224.79166666666666 332.22222222222223,244.58333333333334 370.0,244.58333333333334 370.0,208.95833333333334" stroke="#0000ff" stroke-width="1.0" stroke-linecap="square" stroke-linejoin="bevel" fill="#000000" fill-opacity="0.0" fill-rule="evenodd" />
    <circle cx="30.0" cy="228.75" r="4.0" stroke="#ffffff" stroke-width="1.0" stroke-linecap="square" stroke-linejoin="bevel" fill="#0000ff" />
    <circle cx="67.77777777777777" cy="240.625" r="4.0" stroke="#ffffff" stroke-width="1.0" stroke-linecap="square" stroke-linejoin="bevel" fill="#0000ff" />
    <circle cx="105.55555555555556" cy="220.83333333333334" r="4.0" stroke="#ffffff" stroke-width="1.0" stroke-linecap="square" stroke-linejoin="bevel" fill="#0000ff" />
    <circle cx="143.33333333333331" cy="236.66666666666666" r="4.0" stroke="#ffffff" stroke-width="1.0" stroke-linecap="square" stroke-linejoin="bevel" fill="#0000ff" />
    <circle cx="181.11111111111111" cy="212.91666666666666" r="4.0" stroke="#ffffff" stroke-width="1.0" stroke-linecap="square" stroke-linejoin="bevel" fill="#0000ff" />
    <circle cx="218.88888888888889" cy="240.625" r="4.0" stroke="#ffffff" stroke-width="1.0" stroke-linecap="square" stroke-linejoin="bevel" fill="#0000ff" />
    <circle cx="256.66666666666663" cy="216.875" r="4.0" stroke="#ffffff" stroke-width="1.0" stroke-linecap="square" stroke-linejoin="bevel" fill="#0000ff" />
    <circle cx="294.44444444444446" cy="224.79166666666666" r="4.0" stroke="#ffffff" stroke-width="1.0" stroke-linecap="square" stroke-linejoin="bevel" fill="#0000ff" />
    <circle cx="332.22222222222223" cy="244.58333333333334" r="4.0" stroke="#ffffff" stroke-width="1.0" stroke-linecap="square" stroke-linejoin="bevel" fill="#0000ff" />
    <circle cx="370.0" cy="208.95833333333334" r="4.0" stroke="#ffffff" stroke-width="1.0" stroke-linecap="square" stroke-linejoin="bevel" fill="#0000ff" />
  </g>
  <text x="30.0" y="278.0" font-family="Arial" font-size="14.0" fill="#000000" >pero.AFTER</text>
  <g id="tag_4714356128" class="profile">
    <polygon points="30.0,316.25 48.888888888888886,316.25 48.888888888888886,328.125 67.77777777777777,328.125 86.66666666666666,328.125 86.66666666666666,308.3333333333333 105.55555555555556,308.3333333333333 124.44444444444443,308.3333333333333 124.44444444444443,324.1666666666667 143.33333333333331,324.1666666666667 162.22222222222223,324.1666666666667 162.22222222222223,300.4166666666667 181.11111111111111,300.4166666666667 200.0,300.4166666666667 200.0,328.125 218.88888888888889,328.125 237.77777777777777,328.125 237.77777777777777,304.375 256.66666666666663,304.375 275.55555555555554,304.375 275.55555555555554,312.2916666666667 294.44444444444446,312.2916666666667 313.33333333333337,312.2916666666667 313.33333333333337,332.0833333333333 332.22222222222223,332.0833333333333 351.1111111111111,332.0833333333333 351.1111111111111,296.4583333333333 370.0,296.4583333333333 370.0,336.0416666666667 30.0,336.0416666666667" stroke="#000000" stroke-opacity="0.0" stroke-width="1.0" stroke-linecap="square" stroke-linejoin="bevel" fill="#b3b3ff" fill-rule="evenodd" />
    <polyline points="30.0,316.25 48.888888888888886,316.25 48.888888888888886,328.125 67.77777777777777,328.125 86.66666666666666,328.125 86.66666666666666,308.3333333333333 105.55555555555556,308.3333333333333 124.44444444444443,308.3333333333333 124.44444444444443,324.1666666666667 143.33333333333331,324.1666666666667 162.22222222222223,324.1666666666667 162.22222222222223,300.4166666666667 181.11111111111111,300.4166666666667 200.0,300.4166666666667 200.0,328.125 218.88888888888889,328.125 237.77777777777777,328.125 237.77777777777777,304.375 256.66666666666663,304.375 275.55555555555554,304.375 275.55555555555554,312.2916666666667 294.44444444444446,312.2916666666667 313.33333333333337,312.2916666666667 313.33333333333337,332.0833333333333 332.22222222222223,332.0833333333333 351.1111111111111,332.0833333333333 351.1111111111111,296.4583333333333 370.0,296.4583333333333" stroke="#0000ff" stroke-width="1.0" stroke-linecap="square" stroke-linejoin="bevel" fill="#000000" fill-opacity="0.0" fill-rule="evenodd" />
    <circle cx="30.0" cy="316.25" r="4.0" stroke="#ffffff" stroke-width="1.0" stroke-linecap="square" stroke-linejoin="bevel" fill="#0000ff" />
    <circle cx="67.77777777777777" cy="328.125" r="4.0" stroke="#ffffff" stroke-width="1.0" stroke-linecap="square" stroke-linejoin="bevel" fill="#0000ff" />
    <circle cx="105.55555555555556" cy="308.3333333333333" r="4.0" stroke="#ffffff" stroke-width="1.0" stroke-linecap="square" stroke-linejoin="bevel" fill="#0000ff" />
    <circle cx="143.33333333333331" cy="324.1666666666667" r="4.0" stroke="#ffffff" stroke-width="1.0" stroke-linecap="square" stroke-linejoin="bevel" fill="#0000ff" />
    <circle cx="181.11111111111111" cy="300.4166666666667" r="4.0" stroke="#ffffff" stroke-width="1.0" stroke-linecap="square" stroke-linejoin="bevel" fill="#0000ff" />
    <circle cx="218.88888888888889" cy="328.125" r="4.0" stroke="#ffffff" stroke-width="1.0" stroke-linecap="square" stroke-linejoin="bevel" fill="#0000ff" />
    <circle cx="256.66666666666663" cy="304.375" r="4.0" stroke="#ffffff" stroke-width="1.0" stroke-linecap="square" stroke-linejoin="bevel" fill="#0000ff" />
    <circle cx="294.44444444444446" cy="312.2916666666667" r="4.0" stroke="#ffffff" stroke-width="1.0" stroke-linecap="square" stroke-linejoin="bevel" fill="#0000ff" />
    <circle cx="332.22222222222223" cy="332.0833333333333" r="4.0" stroke="#ffffff" stroke-width="1.0" stroke-linecap="square" stroke-linejoin="bevel" fill="#0000ff" />
    <circle cx="370.0" cy="296.4583333333333" r="4.0" stroke="#ffffff" stroke-width="1.0" stroke-linecap="square" stroke-linejoin="bevel" fill="#0000ff" />
  </g>
  <text x="30.0" y="365.5" font-family="Arial" font-size="14.0" fill="#000000" >pero.MIDDLE</text>
</svg>